<svg fill="none" height="24" viewBox="0 0 24 24" width="24" xmlns="http://www.w3.org/2000/svg"><g fill="#292d32"><path d="m9.5415 16.6708c-.41 0-.75-.34-.75-.75v-3.39l-.19.22c-.28.31-.75.33-1.06.06-.31-.28-.33-.75-.06-1.06l1.5-1.67c.21-.22999.54-.30999.83-.19999s.48.38999.48.69999v5.35c0 .41-.33.74-.75.74z"/><path d="m12.0011 3.47974c-.08 0-.16.01-.24.01l.82-1.02c.26-.32.21-.8-.12-1.05-.32-.26-.79-.21-1.05.12l-1.97001 2.46c-.01.01-.01.02-.02.04-.03.04-.05.09-.07.13-.02.05-.04.09-.05.13-.01.05-.01.09-.01.14v.15.05c.01.03.03.05.04.09.02.05.03.09.06.13s.06.08.1.12c.02.02.04.05.06.07.01.01.03.01.04.02.03.02.06.04.1.05.05.03.1.05.15.06.04.02.07.02.11.02.03 0 .05001.01.08001.01.02 0 .05-.01.07-.02h.1c.64-.15 1.24-.22 1.81-.22 4.49 0 8.14 3.65 8.14 8.13996 0 4.49-3.65 8.14-8.14 8.14-4.49001 0-8.14001-3.65-8.14001-8.14 0-1.74.57-3.41996 1.65-4.85996.25-.33.18-.8-.15-1.05s-.8-.18-1.05.15c-1.28 1.7-1.95 3.68996-1.95 5.75996 0 5.31 4.32 9.64 9.64001 9.64 5.32 0 9.64-4.32 9.64-9.64 0-5.31996-4.34-9.62996-9.65-9.62996z"/><path d="m14 16.6703c-1.52 0-2.75-1.23-2.75-2.75v-1.35c0-1.52 1.23-2.74999 2.75-2.74999s2.75 1.22999 2.75 2.74999v1.35c0 1.52-1.23 2.75-2.75 2.75zm0-5.34c-.69 0-1.25.56-1.25 1.25v1.35c0 .69.56 1.25 1.25 1.25s1.25-.56 1.25-1.25v-1.35c0-.69-.56-1.25-1.25-1.25z"/></g></svg>